<?xml version="1.0" standalone="no"?><!DOCTYPE svg PUBLIC "-//W3C//DTD SVG 1.1//EN" "http://www.w3.org/Graphics/SVG/1.1/DTD/svg11.dtd"><svg t="1531299006714" class="icon" style="" viewBox="0 0 1024 1024" version="1.1" xmlns="http://www.w3.org/2000/svg" p-id="2092" xmlns:xlink="http://www.w3.org/1999/xlink" width="128" height="128"><defs><style type="text/css"></style></defs><path d="M824.16 233.056l-82.976 0 0-54.752-110.336 0c0 0-87.392-127.104-169.472 0l-112.544 0 0 54.752-89.6 0c-62.4 0-112.992 50.592-112.992 112.992l0 564.96c0 62.4 50.592 112.992 112.992 112.992l564.96 0c62.4 0 112.992-50.592 112.992-112.992l0-564.96c0-62.4-50.592-112.992-112.992-112.992zM405.312 287.776l0.448 0 0-51.648 55.584 0c0 0 73.28-127.552 169.472 0l57.376 0 0 112.992-282.912 0 0-61.344zM884.192 873.408c0 53.888-43.136 97.632-96.352 97.632l-481.728 0c-53.184 0-96.352-43.712-96.352-97.632l0-488c0-53.888 43.136-97.632 96.352-97.632l42.688 0 0 116.512 392.384 0 0-116.512 46.656 0c53.184 0 96.352 43.712 96.352 97.632l0 488zM320.416 517.856l451.968 0 0 56.48-451.968 0 0-56.48zM320.416 662.624l451.968 0 0 56.48-451.968 0 0-56.48zM320.416 803.872l451.968 0 0 56.48-451.968 0 0-56.48z" p-id="2093" fill="#5D4037"></path></svg>