<?xml version="1.0" standalone="no"?><!DOCTYPE svg PUBLIC "-//W3C//DTD SVG 1.1//EN" "http://www.w3.org/Graphics/SVG/1.1/DTD/svg11.dtd"><svg t="1531538767758" class="icon" style="" viewBox="0 0 1024 1024" version="1.1" xmlns="http://www.w3.org/2000/svg" p-id="1179" xmlns:xlink="http://www.w3.org/1999/xlink" width="200" height="200"><defs><style type="text/css"></style></defs><path d="M672.842245 487.007793c-18.761296 0-33.973766 41.974997-33.973766 93.758384 0 51.754734 15.211447 93.758384 33.973766 93.758384 18.761296 0 33.973766-42.00365 33.973766-93.758384C706.816011 528.98279 691.604564 487.007793 672.842245 487.007793zM354.068038 487.007793c-18.761296 0-33.973766 41.974997-33.973766 93.758384 0 51.754734 15.211447 93.758384 33.973766 93.758384 18.787902 0 33.997302-42.00365 33.997302-93.758384C388.06534 528.98279 372.85594 487.007793 354.068038 487.007793zM512.296759 126.074394c-213.588563 0-386.718669 173.105546-386.718669 386.720715 0 213.561957 173.130106 386.718669 386.718669 386.718669 213.561957 0 386.718669-173.155688 386.718669-386.718669C899.015428 299.180963 725.859739 126.074394 512.296759 126.074394zM512.296759 854.988702c-121.504308 0-227.923036-63.49001-288.661376-158.921499-15.904225-73.014944-30.728862-245.733681 142.682653-362.090758 44.267203 12.534478 131.516336 48.051389 173.775812 140.444683 0 0 0.874927-64.573691-41.281195-125.285424 118.130468 37.937031 288.559045 126.700657 314.115094 327.191924C754.915495 782.77296 642.061195 854.988702 512.296759 854.988702z" p-id="1180" fill="#515151"></path></svg>